fd_1_states
version=1
nRows=41
nColumns=17
inDegrees=yes

# SIMM Motion File Header:
name fd_1_states
datacolumns 17
datarows 41
otherdata 1
range 0.03000000 0.09467661
endheader
time	/jointset/r_shoulder/r_shoulder_elev/value	/jointset/r_shoulder/r_shoulder_elev/speed	/jointset/r_elbow/r_elbow_flex/value	/jointset/r_elbow/r_elbow_flex/speed	/forceset/TRIlong/activation	/forceset/TRIlong/fiber_length	/forceset/TRIlat/activation	/forceset/TRIlat/fiber_length	/forceset/TRImed/activation	/forceset/TRImed/fiber_length	/forceset/BIClong/activation	/forceset/BIClong/fiber_length	/forceset/BICshort/activation	/forceset/BICshort/fiber_length	/forceset/BRA/activation	/forceset/BRA/fiber_length
      0.03000000	      0.00000000	      0.00000000	      4.20000008	    139.99999984	      0.02897038	      0.13775595	      0.02000000	      0.07184446	      0.02000000	      0.06690835	      0.02000000	      0.14782394	      0.02000000	      0.14717018	      0.04661034	      0.09231562
      0.03019734	     -0.00000001	     -0.00005036	      4.22762706	    140.00048583	      0.02895010	      0.13776609	      0.02000000	      0.07185457	      0.02000000	      0.06691841	      0.02006841	      0.14781875	      0.02084729	      0.14716454	      0.04657572	      0.09230862
      0.03039467	     -0.00000001	      0.00003122	      4.25525409	    140.00048227	      0.02892614	      0.13777629	      0.02000000	      0.07186468	      0.02000000	      0.06692847	      0.02014768	      0.14781349	      0.02182681	      0.14715800	      0.04653480	      0.09230164
      0.03130970	      0.00000061	      0.00152565	      4.38335687	    139.99635092	      0.02881589	      0.13782419	      0.02000000	      0.07191161	      0.02000000	      0.06697517	      0.02047885	      0.14778844	      0.02589561	      0.14711894	      0.04634662	      0.09226938
      0.03400379	      0.00001214	      0.00597340	      4.76049756	    139.98333009	      0.02849930	      0.13796817	      0.02000000	      0.07205021	      0.02000000	      0.06711305	      0.02117851	      0.14771185	      0.03440853	      0.14696779	      0.04580711	      0.09217526
      0.03669788	      0.00002672	      0.00345923	      5.13763466	    139.99488752	      0.02819434	      0.13811381	      0.02000000	      0.07218972	      0.02000000	      0.06725200	      0.02159939	      0.14763447	      0.03953244	      0.14681339	      0.04528859	      0.09208175
      0.03926583	      0.00002634	     -0.00447349	      5.49717012	    140.02478819	      0.02791408	      0.13825325	      0.02000000	      0.07232332	      0.02000000	      0.06738482	      0.02184367	      0.14756070	      0.04254660	      0.14667852	      0.04481310	      0.09199288
      0.04012226	      0.00002128	     -0.00734851	      5.61709588	    140.03546886	      0.02782280	      0.13829986	      0.02000000	      0.07236806	      0.02000000	      0.06742941	      0.02197841	      0.14753606	      0.04315865	      0.14663646	      0.04466817	      0.09196328
      0.04073810	      0.00001608	     -0.00957215	      5.70333723	    140.04342412	      0.02775783	      0.13833341	      0.02000000	      0.07240027	      0.02000000	      0.06746147	      0.02269281	      0.14751750	      0.04304417	      0.14660767	      0.04464971	      0.09194196
      0.04135394	      0.00000945	     -0.01203279	      5.78958365	    140.05200093	      0.02769342	      0.13836698	      0.02000000	      0.07243251	      0.02000000	      0.06749356	      0.02339784	      0.14749766	      0.04291400	      0.14658031	      0.04464135	      0.09192056
      0.04400758	     -0.00003909	     -0.02535750	      6.16129015	    140.09831719	      0.02742203	      0.13851191	      0.02000000	      0.07257175	      0.02000000	      0.06763211	      0.02564944	      0.14740714	      0.04236632	      0.14647451	      0.04460615	      0.09182788
      0.04721380	     -0.00014750	     -0.04193236	      6.61057065	    140.15597541	      0.02710712	      0.13868758	      0.02000000	      0.07274099	      0.02000000	      0.06780073	      0.02722701	      0.14729845	      0.04173234	      0.14636283	      0.04456536	      0.09171556
      0.04970658	     -0.00026360	     -0.05033911	      6.95998592	    140.18225015	      0.02687172	      0.13882463	      0.02000000	      0.07287332	      0.02000000	      0.06793217	      0.02794469	      0.14721637	      0.04125951	      0.14628231	      0.04453491	      0.09162826
      0.05020036	     -0.00028865	     -0.05109357	      7.02920539	    140.18382530	      0.02682604	      0.13885182	      0.02000000	      0.07289959	      0.02000000	      0.06795837	      0.02818236	      0.14720032	      0.04121162	      0.14626674	      0.04451715	      0.09161097
      0.05069414	     -0.00031403	     -0.05166805	      7.09842540	    140.18453616	      0.02678067	      0.13887902	      0.02000000	      0.07292588	      0.02000000	      0.06798456	      0.02911149	      0.14718353	      0.04153167	      0.14625098	      0.04443165	      0.09159373
      0.05118792	     -0.00033965	     -0.05211837	      7.16764562	    140.18471011	      0.02673561	      0.13890623	      0.02000000	      0.07295218	      0.02000000	      0.06801076	      0.02997561	      0.14716581	      0.04185480	      0.14623481	      0.04434500	      0.09157654
      0.05365681	     -0.00047029	     -0.05373842	      7.51374593	    140.18453827	      0.02651484	      0.13904248	      0.02000000	      0.07308395	      0.02000000	      0.06814191	      0.03327793	      0.14707129	      0.04310373	      0.14614988	      0.04392103	      0.09149121
      0.05704606	     -0.00065455	     -0.05509288	      7.98886680	    140.18604630	      0.02622370	      0.13922996	      0.02000000	      0.07326555	      0.02000000	      0.06832272	      0.03593731	      0.14694174	      0.04412840	      0.14602849	      0.04336334	      0.09137488
      0.05891800	     -0.00075685	     -0.05398037	      8.25128294	    140.18072869	      0.02606862	      0.13933380	      0.02000000	      0.07336648	      0.02000000	      0.06842314	      0.03683635	      0.14687271	      0.04447972	      0.14596100	      0.04306691	      0.09131082
      0.06006285	     -0.00081784	     -0.05240625	      8.41176552	    140.17356962	      0.02597571	      0.13939738	      0.02000000	      0.07342823	      0.02000000	      0.06848460	      0.03735944	      0.14683132	      0.04468601	      0.14591979	      0.04289848	      0.09127168
      0.06048595	     -0.00083983	     -0.05154192	      8.47107136	    140.16978428	      0.02594174	      0.13942088	      0.02000000	      0.07345107	      0.02000000	      0.06850734	      0.03819864	      0.14681574	      0.04502014	      0.14590442	      0.04294794	      0.09125719
      0.06090904	     -0.00086144	     -0.05059973	      8.53037551	    140.16569829	      0.02590797	      0.13944440	      0.02000000	      0.07347392	      0.02000000	      0.06853008	      0.03906750	      0.14679953	      0.04536708	      0.14588876	      0.04301163	      0.09124262
      0.06302451	     -0.00096517	     -0.04867933	      8.82687593	    140.15457049	      0.02574201	      0.13956207	      0.02000000	      0.07358836	      0.02000000	      0.06864398	      0.04253034	      0.14671353	      0.04675917	      0.14580773	      0.04326731	      0.09116908
      0.06630916	     -0.00114443	     -0.06536962	      9.28728674	    140.20188765	      0.02549367	      0.13974512	      0.02000000	      0.07376647	      0.02000000	      0.06882125	      0.04585900	      0.14657790	      0.04811134	      0.14567841	      0.04351532	      0.09105431
      0.06959381	     -0.00141893	     -0.10388200	      9.74797829	    140.31570845	      0.02525622	      0.13992866	      0.02000000	      0.07394614	      0.02000000	      0.06900078	      0.04771417	      0.14644739	      0.04887077	      0.14554954	      0.04365396	      0.09093981
      0.07014562	     -0.00147869	     -0.11274567	      9.82541320	    140.34130862	      0.02521737	      0.13995955	      0.02000000	      0.07397613	      0.02000000	      0.06903028	      0.04807419	      0.14642601	      0.04892403	      0.14552806	      0.04365367	      0.09092062
      0.07069744	     -0.00154339	     -0.12176594	      9.90286226	    140.36714380	      0.02517880	      0.13999046	      0.02000000	      0.07400624	      0.02000000	      0.06906008	      0.04936340	      0.14640405	      0.04873809	      0.14550683	      0.04353832	      0.09090150
      0.07124925	     -0.00161313	     -0.13104276	      9.98032576	    140.39364175	      0.02514053	      0.14002137	      0.02000000	      0.07403641	      0.02000000	      0.06909005	      0.05058684	      0.14638119	      0.04854332	      0.14548596	      0.04341764	      0.09088251
      0.07400831	     -0.00204161	     -0.18059275	     10.36787295	    140.53729099	      0.02495341	      0.14017610	      0.02000000	      0.07418769	      0.02000000	      0.06924041	      0.05518688	      0.14626076	      0.04759367	      0.14538561	      0.04282867	      0.09078855
      0.07676736	     -0.00260760	     -0.22850415	     10.75582474	    140.68012103	      0.02477319	      0.14033116	      0.02000000	      0.07433993	      0.02000000	      0.06939263	      0.05802387	      0.14613968	      0.04668295	      0.14528945	      0.04226305	      0.09069542
      0.07912539	     -0.00319034	     -0.26488417	     11.08768390	    140.78840836	      0.02462444	      0.14046394	      0.02000000	      0.07447024	      0.02000000	      0.06952150	      0.05957893	      0.14603903	      0.04593412	      0.14520882	      0.04179740	      0.09061606
      0.07994644	     -0.00341206	     -0.27505409	     11.20328946	    140.81793301	      0.02457376	      0.14051022	      0.02000000	      0.07451578	      0.02000000	      0.06956710	      0.05998887	      0.14600467	      0.04567956	      0.14518088	      0.04163900	      0.09058845
      0.08027973	     -0.00350438	     -0.27890084	     11.25022440	    140.82889158	      0.02455335	      0.14052902	      0.02000000	      0.07453427	      0.02000000	      0.06958556	      0.06058820	      0.14599073	      0.04562045	      0.14516953	      0.04155986	      0.09057724
      0.08061301	     -0.00359796	     -0.28260077	     11.29716290	    140.83931254	      0.02453303	      0.14054782	      0.02000000	      0.07455277	      0.02000000	      0.06960400	      0.06151687	      0.14597646	      0.04559738	      0.14515814	      0.04146844	      0.09056606
      0.08227946	     -0.00408333	     -0.29958513	     11.53190421	    140.88659819	      0.02443279	      0.14064188	      0.02000000	      0.07464534	      0.02000000	      0.06969620	      0.06542907	      0.14590122	      0.04548365	      0.14510037	      0.04101802	      0.09051031
      0.08547661	     -0.00508883	     -0.32950829	     11.98247643	    140.97342794	      0.02424672	      0.14082256	      0.02000000	      0.07482326	      0.02000000	      0.06987325	      0.07041771	      0.14575067	      0.04527295	      0.14498628	      0.04018424	      0.09040384
      0.08829395	     -0.00605156	     -0.35297403	     12.37975106	    141.04525448	      0.02408931	      0.14098210	      0.02000000	      0.07498102	      0.02000000	      0.07003079	      0.07305994	      0.14562001	      0.04509514	      0.14488281	      0.03948127	      0.09031025
      0.08995516	     -0.00664906	     -0.36600575	     12.61409040	    141.08459491	      0.02399928	      0.14107628	      0.02000000	      0.07507392	      0.02000000	      0.07012289	      0.07412751	      0.14554491	      0.04499362	      0.14482070	      0.03908017	      0.09025511
      0.09071229	     -0.00692812	     -0.37110380	     12.72091559	    141.09951450	      0.02395891	      0.14111923	      0.02000000	      0.07511638	      0.02000000	      0.07016516	      0.07550754	      0.14551075	      0.04562095	      0.14479166	      0.03903665	      0.09022992
      0.09146942	     -0.00721100	     -0.37622018	     12.82775190	    141.11431506	      0.02391895	      0.14116220	      0.02000000	      0.07515886	      0.02000000	      0.07020747	      0.07690448	      0.14547578	      0.04629234	      0.14476123	      0.03902065	      0.09020456
      0.09467661	     -0.00846434	     -0.40993087	     13.28046915	    141.21355317	      0.02375417	      0.14134434	      0.02000000	      0.07533901	      0.02000000	      0.07038675	      0.08121152	      0.14532444	      0.04831898	      0.14462331	      0.03895471	      0.09009612
